<?xml version="1.0" encoding="utf-8" standalone="no"?>
<!DOCTYPE svg PUBLIC "-//W3C//DTD SVG 1.1//EN"
  "http://www.w3.org/Graphics/SVG/1.1/DTD/svg11.dtd">
<svg xmlns:xlink="http://www.w3.org/1999/xlink" width="576pt" height="288pt" viewBox="0 0 576 288" xmlns="http://www.w3.org/2000/svg" version="1.1">
 <metadata>
  <rdf:RDF xmlns:dc="http://purl.org/dc/elements/1.1/" xmlns:cc="http://creativecommons.org/ns#" xmlns:rdf="http://www.w3.org/1999/02/22-rdf-syntax-ns#">
   <cc:Work>
    <dc:type rdf:resource="http://purl.org/dc/dcmitype/StillImage"/>
    <dc:date>2025-06-27T11:00:34.814730</dc:date>
    <dc:format>image/svg+xml</dc:format>
    <dc:creator>
     <cc:Agent>
      <dc:title>Matplotlib v3.10.1, https://matplotlib.org/</dc:title>
     </cc:Agent>
    </dc:creator>
   </cc:Work>
  </rdf:RDF>
 </metadata>
 <defs>
  <style type="text/css">*{stroke-linejoin: round; stroke-linecap: butt}</style>
 </defs>
 <g id="figure_1">
  <g id="patch_1">
   <path d="M 0 288 
L 576 288 
L 576 0 
L 0 0 
z
" style="fill: #ffffff"/>
  </g>
  <g id="axes_1">
   <g id="patch_2">
    <path d="M 69.86 224.0575 
L 556.56 224.0575 
L 556.56 19.44 
L 69.86 19.44 
z
" style="fill: #ffffff"/>
   </g>
   <g id="patch_3">
    <path d="M 233.9376 224.0575 
L 237.311735 224.0575 
L 237.311735 223.84297 
L 233.9376 223.84297 
z
" clip-path="url(#pbc1ff9ceb3)" style="fill: #87ceeb; opacity: 0.8; stroke: #000000; stroke-linejoin: miter"/>
   </g>
   <g id="patch_4">
    <path d="M 237.311735 224.0575 
L 240.685871 224.0575 
L 240.685871 223.84297 
L 237.311735 223.84297 
z
" clip-path="url(#pbc1ff9ceb3)" style="fill: #87ceeb; opacity: 0.8; stroke: #000000; stroke-linejoin: miter"/>
   </g>
   <g id="patch_5">
    <path d="M 240.685871 224.0575 
L 244.060006 224.0575 
L 244.060006 223.84297 
L 240.685871 223.84297 
z
" clip-path="url(#pbc1ff9ceb3)" style="fill: #87ceeb; opacity: 0.8; stroke: #000000; stroke-linejoin: miter"/>
   </g>
   <g id="patch_6">
    <path d="M 244.060006 224.0575 
L 247.434142 224.0575 
L 247.434142 223.413911 
L 244.060006 223.413911 
z
" clip-path="url(#pbc1ff9ceb3)" style="fill: #87ceeb; opacity: 0.8; stroke: #000000; stroke-linejoin: miter"/>
   </g>
   <g id="patch_7">
    <path d="M 247.434142 224.0575 
L 250.808277 224.0575 
L 250.808277 224.0575 
L 247.434142 224.0575 
z
" clip-path="url(#pbc1ff9ceb3)" style="fill: #87ceeb; opacity: 0.8; stroke: #000000; stroke-linejoin: miter"/>
   </g>
   <g id="patch_8">
    <path d="M 250.808277 224.0575 
L 254.182413 224.0575 
L 254.182413 223.84297 
L 250.808277 223.84297 
z
" clip-path="url(#pbc1ff9ceb3)" style="fill: #87ceeb; opacity: 0.8; stroke: #000000; stroke-linejoin: miter"/>
   </g>
   <g id="patch_9">
    <path d="M 254.182413 224.0575 
L 257.556548 224.0575 
L 257.556548 223.413911 
L 254.182413 223.413911 
z
" clip-path="url(#pbc1ff9ceb3)" style="fill: #87ceeb; opacity: 0.8; stroke: #000000; stroke-linejoin: miter"/>
   </g>
   <g id="patch_10">
    <path d="M 257.556548 224.0575 
L 260.930684 224.0575 
L 260.930684 223.199382 
L 257.556548 223.199382 
z
" clip-path="url(#pbc1ff9ceb3)" style="fill: #87ceeb; opacity: 0.8; stroke: #000000; stroke-linejoin: miter"/>
   </g>
   <g id="patch_11">
    <path d="M 260.930684 224.0575 
L 264.304819 224.0575 
L 264.304819 223.84297 
L 260.930684 223.84297 
z
" clip-path="url(#pbc1ff9ceb3)" style="fill: #87ceeb; opacity: 0.8; stroke: #000000; stroke-linejoin: miter"/>
   </g>
   <g id="patch_12">
    <path d="M 264.304819 224.0575 
L 267.678955 224.0575 
L 267.678955 221.268616 
L 264.304819 221.268616 
z
" clip-path="url(#pbc1ff9ceb3)" style="fill: #87ceeb; opacity: 0.8; stroke: #000000; stroke-linejoin: miter"/>
   </g>
   <g id="patch_13">
    <path d="M 267.678955 224.0575 
L 271.05309 224.0575 
L 271.05309 221.054087 
L 267.678955 221.054087 
z
" clip-path="url(#pbc1ff9ceb3)" style="fill: #87ceeb; opacity: 0.8; stroke: #000000; stroke-linejoin: miter"/>
   </g>
   <g id="patch_14">
    <path d="M 271.05309 224.0575 
L 274.427226 224.0575 
L 274.427226 221.054087 
L 271.05309 221.054087 
z
" clip-path="url(#pbc1ff9ceb3)" style="fill: #87ceeb; opacity: 0.8; stroke: #000000; stroke-linejoin: miter"/>
   </g>
   <g id="patch_15">
    <path d="M 274.427226 224.0575 
L 277.801361 224.0575 
L 277.801361 219.123321 
L 274.427226 219.123321 
z
" clip-path="url(#pbc1ff9ceb3)" style="fill: #87ceeb; opacity: 0.8; stroke: #000000; stroke-linejoin: miter"/>
   </g>
   <g id="patch_16">
    <path d="M 277.801361 224.0575 
L 281.175496 224.0575 
L 281.175496 213.760083 
L 277.801361 213.760083 
z
" clip-path="url(#pbc1ff9ceb3)" style="fill: #87ceeb; opacity: 0.8; stroke: #000000; stroke-linejoin: miter"/>
   </g>
   <g id="patch_17">
    <path d="M 281.175496 224.0575 
L 284.549632 224.0575 
L 284.549632 204.749844 
L 281.175496 204.749844 
z
" clip-path="url(#pbc1ff9ceb3)" style="fill: #87ceeb; opacity: 0.8; stroke: #000000; stroke-linejoin: miter"/>
   </g>
   <g id="patch_18">
    <path d="M 284.549632 224.0575 
L 287.923767 224.0575 
L 287.923767 198.957547 
L 284.549632 198.957547 
z
" clip-path="url(#pbc1ff9ceb3)" style="fill: #87ceeb; opacity: 0.8; stroke: #000000; stroke-linejoin: miter"/>
   </g>
   <g id="patch_19">
    <path d="M 287.923767 224.0575 
L 291.297903 224.0575 
L 291.297903 184.58407 
L 287.923767 184.58407 
z
" clip-path="url(#pbc1ff9ceb3)" style="fill: #87ceeb; opacity: 0.8; stroke: #000000; stroke-linejoin: miter"/>
   </g>
   <g id="patch_20">
    <path d="M 291.297903 224.0575 
L 294.672038 224.0575 
L 294.672038 162.058471 
L 291.297903 162.058471 
z
" clip-path="url(#pbc1ff9ceb3)" style="fill: #87ceeb; opacity: 0.8; stroke: #000000; stroke-linejoin: miter"/>
   </g>
   <g id="patch_21">
    <path d="M 294.672038 224.0575 
L 298.046174 224.0575 
L 298.046174 145.754228 
L 294.672038 145.754228 
z
" clip-path="url(#pbc1ff9ceb3)" style="fill: #87ceeb; opacity: 0.8; stroke: #000000; stroke-linejoin: miter"/>
   </g>
   <g id="patch_22">
    <path d="M 298.046174 224.0575 
L 301.420309 224.0575 
L 301.420309 130.737162 
L 298.046174 130.737162 
z
" clip-path="url(#pbc1ff9ceb3)" style="fill: #87ceeb; opacity: 0.8; stroke: #000000; stroke-linejoin: miter"/>
   </g>
   <g id="patch_23">
    <path d="M 301.420309 224.0575 
L 304.794445 224.0575 
L 304.794445 130.737162 
L 301.420309 130.737162 
z
" clip-path="url(#pbc1ff9ceb3)" style="fill: #87ceeb; opacity: 0.8; stroke: #000000; stroke-linejoin: miter"/>
   </g>
   <g id="patch_24">
    <path d="M 304.794445 224.0575 
L 308.16858 224.0575 
L 308.16858 155.837115 
L 304.794445 155.837115 
z
" clip-path="url(#pbc1ff9ceb3)" style="fill: #87ceeb; opacity: 0.8; stroke: #000000; stroke-linejoin: miter"/>
   </g>
   <g id="patch_25">
    <path d="M 308.16858 224.0575 
L 311.542716 224.0575 
L 311.542716 174.072124 
L 308.16858 174.072124 
z
" clip-path="url(#pbc1ff9ceb3)" style="fill: #87ceeb; opacity: 0.8; stroke: #000000; stroke-linejoin: miter"/>
   </g>
   <g id="patch_26">
    <path d="M 311.542716 224.0575 
L 314.916851 224.0575 
L 314.916851 190.805426 
L 311.542716 190.805426 
z
" clip-path="url(#pbc1ff9ceb3)" style="fill: #87ceeb; opacity: 0.8; stroke: #000000; stroke-linejoin: miter"/>
   </g>
   <g id="patch_27">
    <path d="M 314.916851 224.0575 
L 318.290987 224.0575 
L 318.290987 204.749844 
L 314.916851 204.749844 
z
" clip-path="url(#pbc1ff9ceb3)" style="fill: #87ceeb; opacity: 0.8; stroke: #000000; stroke-linejoin: miter"/>
   </g>
   <g id="patch_28">
    <path d="M 318.290987 224.0575 
L 321.665122 224.0575 
L 321.665122 213.545554 
L 318.290987 213.545554 
z
" clip-path="url(#pbc1ff9ceb3)" style="fill: #87ceeb; opacity: 0.8; stroke: #000000; stroke-linejoin: miter"/>
   </g>
   <g id="patch_29">
    <path d="M 321.665122 224.0575 
L 325.039258 224.0575 
L 325.039258 217.407085 
L 321.665122 217.407085 
z
" clip-path="url(#pbc1ff9ceb3)" style="fill: #87ceeb; opacity: 0.8; stroke: #000000; stroke-linejoin: miter"/>
   </g>
   <g id="patch_30">
    <path d="M 325.039258 224.0575 
L 328.413393 224.0575 
L 328.413393 221.268616 
L 325.039258 221.268616 
z
" clip-path="url(#pbc1ff9ceb3)" style="fill: #87ceeb; opacity: 0.8; stroke: #000000; stroke-linejoin: miter"/>
   </g>
   <g id="patch_31">
    <path d="M 328.413393 224.0575 
L 331.787529 224.0575 
L 331.787529 222.126734 
L 328.413393 222.126734 
z
" clip-path="url(#pbc1ff9ceb3)" style="fill: #87ceeb; opacity: 0.8; stroke: #000000; stroke-linejoin: miter"/>
   </g>
   <g id="patch_32">
    <path d="M 331.787529 224.0575 
L 335.161664 224.0575 
L 335.161664 222.341264 
L 331.787529 222.341264 
z
" clip-path="url(#pbc1ff9ceb3)" style="fill: #87ceeb; opacity: 0.8; stroke: #000000; stroke-linejoin: miter"/>
   </g>
   <g id="patch_33">
    <path d="M 335.161664 224.0575 
L 338.5358 224.0575 
L 338.5358 222.126734 
L 335.161664 222.126734 
z
" clip-path="url(#pbc1ff9ceb3)" style="fill: #87ceeb; opacity: 0.8; stroke: #000000; stroke-linejoin: miter"/>
   </g>
   <g id="patch_34">
    <path d="M 338.5358 224.0575 
L 341.909935 224.0575 
L 341.909935 222.555793 
L 338.5358 222.555793 
z
" clip-path="url(#pbc1ff9ceb3)" style="fill: #87ceeb; opacity: 0.8; stroke: #000000; stroke-linejoin: miter"/>
   </g>
   <g id="patch_35">
    <path d="M 341.909935 224.0575 
L 345.284071 224.0575 
L 345.284071 223.413911 
L 341.909935 223.413911 
z
" clip-path="url(#pbc1ff9ceb3)" style="fill: #87ceeb; opacity: 0.8; stroke: #000000; stroke-linejoin: miter"/>
   </g>
   <g id="patch_36">
    <path d="M 345.284071 224.0575 
L 348.658206 224.0575 
L 348.658206 223.413911 
L 345.284071 223.413911 
z
" clip-path="url(#pbc1ff9ceb3)" style="fill: #87ceeb; opacity: 0.8; stroke: #000000; stroke-linejoin: miter"/>
   </g>
   <g id="patch_37">
    <path d="M 348.658206 224.0575 
L 352.032342 224.0575 
L 352.032342 223.84297 
L 348.658206 223.84297 
z
" clip-path="url(#pbc1ff9ceb3)" style="fill: #87ceeb; opacity: 0.8; stroke: #000000; stroke-linejoin: miter"/>
   </g>
   <g id="patch_38">
    <path d="M 352.032342 224.0575 
L 355.406477 224.0575 
L 355.406477 224.0575 
L 352.032342 224.0575 
z
" clip-path="url(#pbc1ff9ceb3)" style="fill: #87ceeb; opacity: 0.8; stroke: #000000; stroke-linejoin: miter"/>
   </g>
   <g id="patch_39">
    <path d="M 355.406477 224.0575 
L 358.780613 224.0575 
L 358.780613 223.84297 
L 355.406477 223.84297 
z
" clip-path="url(#pbc1ff9ceb3)" style="fill: #87ceeb; opacity: 0.8; stroke: #000000; stroke-linejoin: miter"/>
   </g>
   <g id="patch_40">
    <path d="M 358.780613 224.0575 
L 362.154748 224.0575 
L 362.154748 224.0575 
L 358.780613 224.0575 
z
" clip-path="url(#pbc1ff9ceb3)" style="fill: #87ceeb; opacity: 0.8; stroke: #000000; stroke-linejoin: miter"/>
   </g>
   <g id="patch_41">
    <path d="M 362.154748 224.0575 
L 365.528884 224.0575 
L 365.528884 223.84297 
L 362.154748 223.84297 
z
" clip-path="url(#pbc1ff9ceb3)" style="fill: #87ceeb; opacity: 0.8; stroke: #000000; stroke-linejoin: miter"/>
   </g>
   <g id="patch_42">
    <path d="M 365.528884 224.0575 
L 368.903019 224.0575 
L 368.903019 224.0575 
L 365.528884 224.0575 
z
" clip-path="url(#pbc1ff9ceb3)" style="fill: #87ceeb; opacity: 0.8; stroke: #000000; stroke-linejoin: miter"/>
   </g>
   <g id="patch_43">
    <path d="M 368.903019 224.0575 
L 372.277155 224.0575 
L 372.277155 224.0575 
L 368.903019 224.0575 
z
" clip-path="url(#pbc1ff9ceb3)" style="fill: #87ceeb; opacity: 0.8; stroke: #000000; stroke-linejoin: miter"/>
   </g>
   <g id="patch_44">
    <path d="M 372.277155 224.0575 
L 375.65129 224.0575 
L 375.65129 224.0575 
L 372.277155 224.0575 
z
" clip-path="url(#pbc1ff9ceb3)" style="fill: #87ceeb; opacity: 0.8; stroke: #000000; stroke-linejoin: miter"/>
   </g>
   <g id="patch_45">
    <path d="M 375.65129 224.0575 
L 379.025426 224.0575 
L 379.025426 224.0575 
L 375.65129 224.0575 
z
" clip-path="url(#pbc1ff9ceb3)" style="fill: #87ceeb; opacity: 0.8; stroke: #000000; stroke-linejoin: miter"/>
   </g>
   <g id="patch_46">
    <path d="M 379.025426 224.0575 
L 382.399561 224.0575 
L 382.399561 224.0575 
L 379.025426 224.0575 
z
" clip-path="url(#pbc1ff9ceb3)" style="fill: #87ceeb; opacity: 0.8; stroke: #000000; stroke-linejoin: miter"/>
   </g>
   <g id="patch_47">
    <path d="M 382.399561 224.0575 
L 385.773697 224.0575 
L 385.773697 224.0575 
L 382.399561 224.0575 
z
" clip-path="url(#pbc1ff9ceb3)" style="fill: #87ceeb; opacity: 0.8; stroke: #000000; stroke-linejoin: miter"/>
   </g>
   <g id="patch_48">
    <path d="M 385.773697 224.0575 
L 389.147832 224.0575 
L 389.147832 224.0575 
L 385.773697 224.0575 
z
" clip-path="url(#pbc1ff9ceb3)" style="fill: #87ceeb; opacity: 0.8; stroke: #000000; stroke-linejoin: miter"/>
   </g>
   <g id="patch_49">
    <path d="M 389.147832 224.0575 
L 392.521968 224.0575 
L 392.521968 223.84297 
L 389.147832 223.84297 
z
" clip-path="url(#pbc1ff9ceb3)" style="fill: #87ceeb; opacity: 0.8; stroke: #000000; stroke-linejoin: miter"/>
   </g>
   <g id="patch_50">
    <path d="M 392.521968 224.0575 
L 395.896103 224.0575 
L 395.896103 224.0575 
L 392.521968 224.0575 
z
" clip-path="url(#pbc1ff9ceb3)" style="fill: #87ceeb; opacity: 0.8; stroke: #000000; stroke-linejoin: miter"/>
   </g>
   <g id="patch_51">
    <path d="M 395.896103 224.0575 
L 399.270239 224.0575 
L 399.270239 224.0575 
L 395.896103 224.0575 
z
" clip-path="url(#pbc1ff9ceb3)" style="fill: #87ceeb; opacity: 0.8; stroke: #000000; stroke-linejoin: miter"/>
   </g>
   <g id="patch_52">
    <path d="M 399.270239 224.0575 
L 402.644374 224.0575 
L 402.644374 223.84297 
L 399.270239 223.84297 
z
" clip-path="url(#pbc1ff9ceb3)" style="fill: #87ceeb; opacity: 0.8; stroke: #000000; stroke-linejoin: miter"/>
   </g>
   <g id="patch_53">
    <path d="M 91.982727 224.0575 
L 100.831818 224.0575 
L 100.831818 224.049834 
L 91.982727 224.049834 
z
" clip-path="url(#pbc1ff9ceb3)" style="fill: #ffc0cb; opacity: 0.8; stroke: #000000; stroke-linejoin: miter"/>
   </g>
   <g id="patch_54">
    <path d="M 100.831818 224.0575 
L 109.680909 224.0575 
L 109.680909 224.053667 
L 100.831818 224.053667 
z
" clip-path="url(#pbc1ff9ceb3)" style="fill: #ffc0cb; opacity: 0.8; stroke: #000000; stroke-linejoin: miter"/>
   </g>
   <g id="patch_55">
    <path d="M 109.680909 224.0575 
L 118.53 224.0575 
L 118.53 224.046001 
L 109.680909 224.046001 
z
" clip-path="url(#pbc1ff9ceb3)" style="fill: #ffc0cb; opacity: 0.8; stroke: #000000; stroke-linejoin: miter"/>
   </g>
   <g id="patch_56">
    <path d="M 118.53 224.0575 
L 127.379091 224.0575 
L 127.379091 224.042168 
L 118.53 224.042168 
z
" clip-path="url(#pbc1ff9ceb3)" style="fill: #ffc0cb; opacity: 0.8; stroke: #000000; stroke-linejoin: miter"/>
   </g>
   <g id="patch_57">
    <path d="M 127.379091 224.0575 
L 136.228182 224.0575 
L 136.228182 224.046001 
L 127.379091 224.046001 
z
" clip-path="url(#pbc1ff9ceb3)" style="fill: #ffc0cb; opacity: 0.8; stroke: #000000; stroke-linejoin: miter"/>
   </g>
   <g id="patch_58">
    <path d="M 136.228182 224.0575 
L 145.077273 224.0575 
L 145.077273 224.049834 
L 136.228182 224.049834 
z
" clip-path="url(#pbc1ff9ceb3)" style="fill: #ffc0cb; opacity: 0.8; stroke: #000000; stroke-linejoin: miter"/>
   </g>
   <g id="patch_59">
    <path d="M 145.077273 224.0575 
L 153.926364 224.0575 
L 153.926364 224.049834 
L 145.077273 224.049834 
z
" clip-path="url(#pbc1ff9ceb3)" style="fill: #ffc0cb; opacity: 0.8; stroke: #000000; stroke-linejoin: miter"/>
   </g>
   <g id="patch_60">
    <path d="M 153.926364 224.0575 
L 162.775455 224.0575 
L 162.775455 224.049834 
L 153.926364 224.049834 
z
" clip-path="url(#pbc1ff9ceb3)" style="fill: #ffc0cb; opacity: 0.8; stroke: #000000; stroke-linejoin: miter"/>
   </g>
   <g id="patch_61">
    <path d="M 162.775455 224.0575 
L 171.624545 224.0575 
L 171.624545 224.049834 
L 162.775455 224.049834 
z
" clip-path="url(#pbc1ff9ceb3)" style="fill: #ffc0cb; opacity: 0.8; stroke: #000000; stroke-linejoin: miter"/>
   </g>
   <g id="patch_62">
    <path d="M 171.624545 224.0575 
L 180.473636 224.0575 
L 180.473636 224.042168 
L 171.624545 224.042168 
z
" clip-path="url(#pbc1ff9ceb3)" style="fill: #ffc0cb; opacity: 0.8; stroke: #000000; stroke-linejoin: miter"/>
   </g>
   <g id="patch_63">
    <path d="M 180.473636 224.0575 
L 189.322727 224.0575 
L 189.322727 224.003838 
L 180.473636 224.003838 
z
" clip-path="url(#pbc1ff9ceb3)" style="fill: #ffc0cb; opacity: 0.8; stroke: #000000; stroke-linejoin: miter"/>
   </g>
   <g id="patch_64">
    <path d="M 189.322727 224.0575 
L 198.171818 224.0575 
L 198.171818 224.015337 
L 189.322727 224.015337 
z
" clip-path="url(#pbc1ff9ceb3)" style="fill: #ffc0cb; opacity: 0.8; stroke: #000000; stroke-linejoin: miter"/>
   </g>
   <g id="patch_65">
    <path d="M 198.171818 224.0575 
L 207.020909 224.0575 
L 207.020909 224.007671 
L 198.171818 224.007671 
z
" clip-path="url(#pbc1ff9ceb3)" style="fill: #ffc0cb; opacity: 0.8; stroke: #000000; stroke-linejoin: miter"/>
   </g>
   <g id="patch_66">
    <path d="M 207.020909 224.0575 
L 215.87 224.0575 
L 215.87 223.977007 
L 207.020909 223.977007 
z
" clip-path="url(#pbc1ff9ceb3)" style="fill: #ffc0cb; opacity: 0.8; stroke: #000000; stroke-linejoin: miter"/>
   </g>
   <g id="patch_67">
    <path d="M 215.87 224.0575 
L 224.719091 224.0575 
L 224.719091 223.781524 
L 215.87 223.781524 
z
" clip-path="url(#pbc1ff9ceb3)" style="fill: #ffc0cb; opacity: 0.8; stroke: #000000; stroke-linejoin: miter"/>
   </g>
   <g id="patch_68">
    <path d="M 224.719091 224.0575 
L 233.568182 224.0575 
L 233.568182 223.785357 
L 224.719091 223.785357 
z
" clip-path="url(#pbc1ff9ceb3)" style="fill: #ffc0cb; opacity: 0.8; stroke: #000000; stroke-linejoin: miter"/>
   </g>
   <g id="patch_69">
    <path d="M 233.568182 224.0575 
L 242.417273 224.0575 
L 242.417273 223.141412 
L 233.568182 223.141412 
z
" clip-path="url(#pbc1ff9ceb3)" style="fill: #ffc0cb; opacity: 0.8; stroke: #000000; stroke-linejoin: miter"/>
   </g>
   <g id="patch_70">
    <path d="M 242.417273 224.0575 
L 251.266364 224.0575 
L 251.266364 223.413555 
L 242.417273 223.413555 
z
" clip-path="url(#pbc1ff9ceb3)" style="fill: #ffc0cb; opacity: 0.8; stroke: #000000; stroke-linejoin: miter"/>
   </g>
   <g id="patch_71">
    <path d="M 251.266364 224.0575 
L 260.115455 224.0575 
L 260.115455 223.210406 
L 251.266364 223.210406 
z
" clip-path="url(#pbc1ff9ceb3)" style="fill: #ffc0cb; opacity: 0.8; stroke: #000000; stroke-linejoin: miter"/>
   </g>
   <g id="patch_72">
    <path d="M 260.115455 224.0575 
L 268.964545 224.0575 
L 268.964545 222.865435 
L 260.115455 222.865435 
z
" clip-path="url(#pbc1ff9ceb3)" style="fill: #ffc0cb; opacity: 0.8; stroke: #000000; stroke-linejoin: miter"/>
   </g>
   <g id="patch_73">
    <path d="M 268.964545 224.0575 
L 277.813636 224.0575 
L 277.813636 221.776862 
L 268.964545 221.776862 
z
" clip-path="url(#pbc1ff9ceb3)" style="fill: #ffc0cb; opacity: 0.8; stroke: #000000; stroke-linejoin: miter"/>
   </g>
   <g id="patch_74">
    <path d="M 277.813636 224.0575 
L 286.662727 224.0575 
L 286.662727 219.250912 
L 277.813636 219.250912 
z
" clip-path="url(#pbc1ff9ceb3)" style="fill: #ffc0cb; opacity: 0.8; stroke: #000000; stroke-linejoin: miter"/>
   </g>
   <g id="patch_75">
    <path d="M 286.662727 224.0575 
L 295.511818 224.0575 
L 295.511818 212.075526 
L 286.662727 212.075526 
z
" clip-path="url(#pbc1ff9ceb3)" style="fill: #ffc0cb; opacity: 0.8; stroke: #000000; stroke-linejoin: miter"/>
   </g>
   <g id="patch_76">
    <path d="M 295.511818 224.0575 
L 304.360909 224.0575 
L 304.360909 29.18369 
L 295.511818 29.18369 
z
" clip-path="url(#pbc1ff9ceb3)" style="fill: #ffc0cb; opacity: 0.8; stroke: #000000; stroke-linejoin: miter"/>
   </g>
   <g id="patch_77">
    <path d="M 304.360909 224.0575 
L 313.21 224.0575 
L 313.21 211.849379 
L 304.360909 211.849379 
z
" clip-path="url(#pbc1ff9ceb3)" style="fill: #ffc0cb; opacity: 0.8; stroke: #000000; stroke-linejoin: miter"/>
   </g>
   <g id="patch_78">
    <path d="M 313.21 224.0575 
L 322.059091 224.0575 
L 322.059091 218.453647 
L 313.21 218.453647 
z
" clip-path="url(#pbc1ff9ceb3)" style="fill: #ffc0cb; opacity: 0.8; stroke: #000000; stroke-linejoin: miter"/>
   </g>
   <g id="patch_79">
    <path d="M 322.059091 224.0575 
L 330.908182 224.0575 
L 330.908182 221.688703 
L 322.059091 221.688703 
z
" clip-path="url(#pbc1ff9ceb3)" style="fill: #ffc0cb; opacity: 0.8; stroke: #000000; stroke-linejoin: miter"/>
   </g>
   <g id="patch_80">
    <path d="M 330.908182 224.0575 
L 339.757273 224.0575 
L 339.757273 222.708282 
L 330.908182 222.708282 
z
" clip-path="url(#pbc1ff9ceb3)" style="fill: #ffc0cb; opacity: 0.8; stroke: #000000; stroke-linejoin: miter"/>
   </g>
   <g id="patch_81">
    <path d="M 339.757273 224.0575 
L 348.606364 224.0575 
L 348.606364 223.091583 
L 339.757273 223.091583 
z
" clip-path="url(#pbc1ff9ceb3)" style="fill: #ffc0cb; opacity: 0.8; stroke: #000000; stroke-linejoin: miter"/>
   </g>
   <g id="patch_82">
    <path d="M 348.606364 224.0575 
L 357.455455 224.0575 
L 357.455455 223.428887 
L 348.606364 223.428887 
z
" clip-path="url(#pbc1ff9ceb3)" style="fill: #ffc0cb; opacity: 0.8; stroke: #000000; stroke-linejoin: miter"/>
   </g>
   <g id="patch_83">
    <path d="M 357.455455 224.0575 
L 366.304545 224.0575 
L 366.304545 223.35606 
L 357.455455 223.35606 
z
" clip-path="url(#pbc1ff9ceb3)" style="fill: #ffc0cb; opacity: 0.8; stroke: #000000; stroke-linejoin: miter"/>
   </g>
   <g id="patch_84">
    <path d="M 366.304545 224.0575 
L 375.153636 224.0575 
L 375.153636 223.574541 
L 366.304545 223.574541 
z
" clip-path="url(#pbc1ff9ceb3)" style="fill: #ffc0cb; opacity: 0.8; stroke: #000000; stroke-linejoin: miter"/>
   </g>
   <g id="patch_85">
    <path d="M 375.153636 224.0575 
L 384.002727 224.0575 
L 384.002727 223.75086 
L 375.153636 223.75086 
z
" clip-path="url(#pbc1ff9ceb3)" style="fill: #ffc0cb; opacity: 0.8; stroke: #000000; stroke-linejoin: miter"/>
   </g>
   <g id="patch_86">
    <path d="M 384.002727 224.0575 
L 392.851818 224.0575 
L 392.851818 223.988506 
L 384.002727 223.988506 
z
" clip-path="url(#pbc1ff9ceb3)" style="fill: #ffc0cb; opacity: 0.8; stroke: #000000; stroke-linejoin: miter"/>
   </g>
   <g id="patch_87">
    <path d="M 392.851818 224.0575 
L 401.700909 224.0575 
L 401.700909 223.996172 
L 392.851818 223.996172 
z
" clip-path="url(#pbc1ff9ceb3)" style="fill: #ffc0cb; opacity: 0.8; stroke: #000000; stroke-linejoin: miter"/>
   </g>
   <g id="patch_88">
    <path d="M 401.700909 224.0575 
L 410.55 224.0575 
L 410.55 224.011504 
L 401.700909 224.011504 
z
" clip-path="url(#pbc1ff9ceb3)" style="fill: #ffc0cb; opacity: 0.8; stroke: #000000; stroke-linejoin: miter"/>
   </g>
   <g id="patch_89">
    <path d="M 410.55 224.0575 
L 419.399091 224.0575 
L 419.399091 223.996172 
L 410.55 223.996172 
z
" clip-path="url(#pbc1ff9ceb3)" style="fill: #ffc0cb; opacity: 0.8; stroke: #000000; stroke-linejoin: miter"/>
   </g>
   <g id="patch_90">
    <path d="M 419.399091 224.0575 
L 428.248182 224.0575 
L 428.248182 224.046001 
L 419.399091 224.046001 
z
" clip-path="url(#pbc1ff9ceb3)" style="fill: #ffc0cb; opacity: 0.8; stroke: #000000; stroke-linejoin: miter"/>
   </g>
   <g id="patch_91">
    <path d="M 428.248182 224.0575 
L 437.097273 224.0575 
L 437.097273 224.042168 
L 428.248182 224.042168 
z
" clip-path="url(#pbc1ff9ceb3)" style="fill: #ffc0cb; opacity: 0.8; stroke: #000000; stroke-linejoin: miter"/>
   </g>
   <g id="patch_92">
    <path d="M 437.097273 224.0575 
L 445.946364 224.0575 
L 445.946364 224.053667 
L 437.097273 224.053667 
z
" clip-path="url(#pbc1ff9ceb3)" style="fill: #ffc0cb; opacity: 0.8; stroke: #000000; stroke-linejoin: miter"/>
   </g>
   <g id="patch_93">
    <path d="M 445.946364 224.0575 
L 454.795455 224.0575 
L 454.795455 224.046001 
L 445.946364 224.046001 
z
" clip-path="url(#pbc1ff9ceb3)" style="fill: #ffc0cb; opacity: 0.8; stroke: #000000; stroke-linejoin: miter"/>
   </g>
   <g id="patch_94">
    <path d="M 454.795455 224.0575 
L 463.644545 224.0575 
L 463.644545 224.049834 
L 454.795455 224.049834 
z
" clip-path="url(#pbc1ff9ceb3)" style="fill: #ffc0cb; opacity: 0.8; stroke: #000000; stroke-linejoin: miter"/>
   </g>
   <g id="patch_95">
    <path d="M 463.644545 224.0575 
L 472.493636 224.0575 
L 472.493636 224.046001 
L 463.644545 224.046001 
z
" clip-path="url(#pbc1ff9ceb3)" style="fill: #ffc0cb; opacity: 0.8; stroke: #000000; stroke-linejoin: miter"/>
   </g>
   <g id="patch_96">
    <path d="M 472.493636 224.0575 
L 481.342727 224.0575 
L 481.342727 224.042168 
L 472.493636 224.042168 
z
" clip-path="url(#pbc1ff9ceb3)" style="fill: #ffc0cb; opacity: 0.8; stroke: #000000; stroke-linejoin: miter"/>
   </g>
   <g id="patch_97">
    <path d="M 481.342727 224.0575 
L 490.191818 224.0575 
L 490.191818 224.049834 
L 481.342727 224.049834 
z
" clip-path="url(#pbc1ff9ceb3)" style="fill: #ffc0cb; opacity: 0.8; stroke: #000000; stroke-linejoin: miter"/>
   </g>
   <g id="patch_98">
    <path d="M 490.191818 224.0575 
L 499.040909 224.0575 
L 499.040909 224.0575 
L 490.191818 224.0575 
z
" clip-path="url(#pbc1ff9ceb3)" style="fill: #ffc0cb; opacity: 0.8; stroke: #000000; stroke-linejoin: miter"/>
   </g>
   <g id="patch_99">
    <path d="M 499.040909 224.0575 
L 507.89 224.0575 
L 507.89 224.0575 
L 499.040909 224.0575 
z
" clip-path="url(#pbc1ff9ceb3)" style="fill: #ffc0cb; opacity: 0.8; stroke: #000000; stroke-linejoin: miter"/>
   </g>
   <g id="patch_100">
    <path d="M 507.89 224.0575 
L 516.739091 224.0575 
L 516.739091 224.0575 
L 507.89 224.0575 
z
" clip-path="url(#pbc1ff9ceb3)" style="fill: #ffc0cb; opacity: 0.8; stroke: #000000; stroke-linejoin: miter"/>
   </g>
   <g id="patch_101">
    <path d="M 516.739091 224.0575 
L 525.588182 224.0575 
L 525.588182 224.0575 
L 516.739091 224.0575 
z
" clip-path="url(#pbc1ff9ceb3)" style="fill: #ffc0cb; opacity: 0.8; stroke: #000000; stroke-linejoin: miter"/>
   </g>
   <g id="patch_102">
    <path d="M 525.588182 224.0575 
L 534.437273 224.0575 
L 534.437273 224.053667 
L 525.588182 224.053667 
z
" clip-path="url(#pbc1ff9ceb3)" style="fill: #ffc0cb; opacity: 0.8; stroke: #000000; stroke-linejoin: miter"/>
   </g>
   <g id="matplotlib.axis_1">
    <g id="xtick_1">
     <g id="line2d_1">
      <path d="M 119.006497 224.0575 
L 119.006497 19.44 
" clip-path="url(#pbc1ff9ceb3)" style="fill: none; stroke: #b0b0b0; stroke-width: 0.8; stroke-linecap: square"/>
     </g>
     <g id="line2d_2">
      <defs>
       <path id="mad1611c391" d="M 0 0 
L 0 3.5 
" style="stroke: #000000; stroke-width: 0.8"/>
      </defs>
      <g>
       <use xlink:href="#mad1611c391" x="119.006497" y="224.0575" style="stroke: #000000; stroke-width: 0.8"/>
      </g>
     </g>
     <g id="text_1">
      <!-- −0.6 -->
      <g transform="translate(97.151966 244.734688) scale(0.18 -0.18)">
       <defs>
        <path id="DejaVuSerif-2212" d="M 678 2259 
L 4684 2259 
L 4684 1753 
L 678 1753 
L 678 2259 
z
" transform="scale(0.015625)"/>
        <path id="DejaVuSerif-30" d="M 2034 219 
Q 2513 219 2750 744 
Q 2988 1269 2988 2328 
Q 2988 3391 2750 3916 
Q 2513 4441 2034 4441 
Q 1556 4441 1318 3916 
Q 1081 3391 1081 2328 
Q 1081 1269 1318 744 
Q 1556 219 2034 219 
z
M 2034 -91 
Q 1275 -91 848 546 
Q 422 1184 422 2328 
Q 422 3475 848 4112 
Q 1275 4750 2034 4750 
Q 2797 4750 3222 4112 
Q 3647 3475 3647 2328 
Q 3647 1184 3222 546 
Q 2797 -91 2034 -91 
z
" transform="scale(0.015625)"/>
        <path id="DejaVuSerif-2e" d="M 603 325 
Q 603 500 722 622 
Q 841 744 1019 744 
Q 1191 744 1312 622 
Q 1434 500 1434 325 
Q 1434 153 1312 31 
Q 1191 -91 1019 -91 
Q 841 -91 722 29 
Q 603 150 603 325 
z
" transform="scale(0.015625)"/>
        <path id="DejaVuSerif-36" d="M 2094 219 
Q 2534 219 2771 542 
Q 3009 866 3009 1472 
Q 3009 2078 2771 2401 
Q 2534 2725 2094 2725 
Q 1647 2725 1412 2412 
Q 1178 2100 1178 1509 
Q 1178 888 1415 553 
Q 1653 219 2094 219 
z
M 1075 2569 
Q 1288 2803 1556 2918 
Q 1825 3034 2163 3034 
Q 2859 3034 3264 2615 
Q 3669 2197 3669 1472 
Q 3669 763 3233 336 
Q 2797 -91 2069 -91 
Q 1278 -91 853 498 
Q 428 1088 428 2181 
Q 428 3406 931 4078 
Q 1434 4750 2350 4750 
Q 2597 4750 2869 4703 
Q 3141 4656 3425 4563 
L 3425 3794 
L 3072 3794 
Q 3034 4109 2831 4275 
Q 2628 4441 2284 4441 
Q 1678 4441 1381 3981 
Q 1084 3522 1075 2569 
z
" transform="scale(0.015625)"/>
       </defs>
       <use xlink:href="#DejaVuSerif-2212"/>
       <use xlink:href="#DejaVuSerif-30" transform="translate(83.789062 0)"/>
       <use xlink:href="#DejaVuSerif-2e" transform="translate(147.412109 0)"/>
       <use xlink:href="#DejaVuSerif-36" transform="translate(179.199219 0)"/>
      </g>
     </g>
    </g>
    <g id="xtick_2">
     <g id="line2d_3">
      <path d="M 179.462169 224.0575 
L 179.462169 19.44 
" clip-path="url(#pbc1ff9ceb3)" style="fill: none; stroke: #b0b0b0; stroke-width: 0.8; stroke-linecap: square"/>
     </g>
     <g id="line2d_4">
      <g>
       <use xlink:href="#mad1611c391" x="179.462169" y="224.0575" style="stroke: #000000; stroke-width: 0.8"/>
      </g>
     </g>
     <g id="text_2">
      <!-- −0.4 -->
      <g transform="translate(157.607637 244.734688) scale(0.18 -0.18)">
       <defs>
        <path id="DejaVuSerif-34" d="M 2234 1581 
L 2234 4063 
L 641 1581 
L 2234 1581 
z
M 3609 0 
L 1484 0 
L 1484 331 
L 2234 331 
L 2234 1247 
L 197 1247 
L 197 1588 
L 2241 4750 
L 2859 4750 
L 2859 1581 
L 3750 1581 
L 3750 1247 
L 2859 1247 
L 2859 331 
L 3609 331 
L 3609 0 
z
" transform="scale(0.015625)"/>
       </defs>
       <use xlink:href="#DejaVuSerif-2212"/>
       <use xlink:href="#DejaVuSerif-30" transform="translate(83.789062 0)"/>
       <use xlink:href="#DejaVuSerif-2e" transform="translate(147.412109 0)"/>
       <use xlink:href="#DejaVuSerif-34" transform="translate(179.199219 0)"/>
      </g>
     </g>
    </g>
    <g id="xtick_3">
     <g id="line2d_5">
      <path d="M 239.91784 224.0575 
L 239.91784 19.44 
" clip-path="url(#pbc1ff9ceb3)" style="fill: none; stroke: #b0b0b0; stroke-width: 0.8; stroke-linecap: square"/>
     </g>
     <g id="line2d_6">
      <g>
       <use xlink:href="#mad1611c391" x="239.91784" y="224.0575" style="stroke: #000000; stroke-width: 0.8"/>
      </g>
     </g>
     <g id="text_3">
      <!-- −0.2 -->
      <g transform="translate(218.063309 244.734688) scale(0.18 -0.18)">
       <defs>
        <path id="DejaVuSerif-32" d="M 819 3553 
L 469 3553 
L 469 4384 
Q 803 4563 1142 4656 
Q 1481 4750 1806 4750 
Q 2534 4750 2956 4397 
Q 3378 4044 3378 3438 
Q 3378 2753 2422 1800 
Q 2347 1728 2309 1691 
L 1131 513 
L 3078 513 
L 3078 1088 
L 3444 1088 
L 3444 0 
L 434 0 
L 434 341 
L 1850 1753 
Q 2319 2222 2519 2614 
Q 2719 3006 2719 3438 
Q 2719 3909 2473 4175 
Q 2228 4441 1797 4441 
Q 1350 4441 1106 4219 
Q 863 3997 819 3553 
z
" transform="scale(0.015625)"/>
       </defs>
       <use xlink:href="#DejaVuSerif-2212"/>
       <use xlink:href="#DejaVuSerif-30" transform="translate(83.789062 0)"/>
       <use xlink:href="#DejaVuSerif-2e" transform="translate(147.412109 0)"/>
       <use xlink:href="#DejaVuSerif-32" transform="translate(179.199219 0)"/>
      </g>
     </g>
    </g>
    <g id="xtick_4">
     <g id="line2d_7">
      <path d="M 300.373512 224.0575 
L 300.373512 19.44 
" clip-path="url(#pbc1ff9ceb3)" style="fill: none; stroke: #b0b0b0; stroke-width: 0.8; stroke-linecap: square"/>
     </g>
     <g id="line2d_8">
      <g>
       <use xlink:href="#mad1611c391" x="300.373512" y="224.0575" style="stroke: #000000; stroke-width: 0.8"/>
      </g>
     </g>
     <g id="text_4">
      <!-- 0.0 -->
      <g transform="translate(286.060699 244.734688) scale(0.18 -0.18)">
       <use xlink:href="#DejaVuSerif-30"/>
       <use xlink:href="#DejaVuSerif-2e" transform="translate(63.623047 0)"/>
       <use xlink:href="#DejaVuSerif-30" transform="translate(95.410156 0)"/>
      </g>
     </g>
    </g>
    <g id="xtick_5">
     <g id="line2d_9">
      <path d="M 360.829183 224.0575 
L 360.829183 19.44 
" clip-path="url(#pbc1ff9ceb3)" style="fill: none; stroke: #b0b0b0; stroke-width: 0.8; stroke-linecap: square"/>
     </g>
     <g id="line2d_10">
      <g>
       <use xlink:href="#mad1611c391" x="360.829183" y="224.0575" style="stroke: #000000; stroke-width: 0.8"/>
      </g>
     </g>
     <g id="text_5">
      <!-- 0.2 -->
      <g transform="translate(346.516371 244.734688) scale(0.18 -0.18)">
       <use xlink:href="#DejaVuSerif-30"/>
       <use xlink:href="#DejaVuSerif-2e" transform="translate(63.623047 0)"/>
       <use xlink:href="#DejaVuSerif-32" transform="translate(95.410156 0)"/>
      </g>
     </g>
    </g>
    <g id="xtick_6">
     <g id="line2d_11">
      <path d="M 421.284855 224.0575 
L 421.284855 19.44 
" clip-path="url(#pbc1ff9ceb3)" style="fill: none; stroke: #b0b0b0; stroke-width: 0.8; stroke-linecap: square"/>
     </g>
     <g id="line2d_12">
      <g>
       <use xlink:href="#mad1611c391" x="421.284855" y="224.0575" style="stroke: #000000; stroke-width: 0.8"/>
      </g>
     </g>
     <g id="text_6">
      <!-- 0.4 -->
      <g transform="translate(406.972043 244.734688) scale(0.18 -0.18)">
       <use xlink:href="#DejaVuSerif-30"/>
       <use xlink:href="#DejaVuSerif-2e" transform="translate(63.623047 0)"/>
       <use xlink:href="#DejaVuSerif-34" transform="translate(95.410156 0)"/>
      </g>
     </g>
    </g>
    <g id="xtick_7">
     <g id="line2d_13">
      <path d="M 481.740527 224.0575 
L 481.740527 19.44 
" clip-path="url(#pbc1ff9ceb3)" style="fill: none; stroke: #b0b0b0; stroke-width: 0.8; stroke-linecap: square"/>
     </g>
     <g id="line2d_14">
      <g>
       <use xlink:href="#mad1611c391" x="481.740527" y="224.0575" style="stroke: #000000; stroke-width: 0.8"/>
      </g>
     </g>
     <g id="text_7">
      <!-- 0.6 -->
      <g transform="translate(467.427714 244.734688) scale(0.18 -0.18)">
       <use xlink:href="#DejaVuSerif-30"/>
       <use xlink:href="#DejaVuSerif-2e" transform="translate(63.623047 0)"/>
       <use xlink:href="#DejaVuSerif-36" transform="translate(95.410156 0)"/>
      </g>
     </g>
    </g>
    <g id="xtick_8">
     <g id="line2d_15">
      <path d="M 542.196198 224.0575 
L 542.196198 19.44 
" clip-path="url(#pbc1ff9ceb3)" style="fill: none; stroke: #b0b0b0; stroke-width: 0.8; stroke-linecap: square"/>
     </g>
     <g id="line2d_16">
      <g>
       <use xlink:href="#mad1611c391" x="542.196198" y="224.0575" style="stroke: #000000; stroke-width: 0.8"/>
      </g>
     </g>
     <g id="text_8">
      <!-- 0.8 -->
      <g transform="translate(527.883386 244.734688) scale(0.18 -0.18)">
       <defs>
        <path id="DejaVuSerif-38" d="M 2981 1275 
Q 2981 1775 2732 2051 
Q 2484 2328 2034 2328 
Q 1584 2328 1336 2051 
Q 1088 1775 1088 1275 
Q 1088 772 1336 495 
Q 1584 219 2034 219 
Q 2484 219 2732 495 
Q 2981 772 2981 1275 
z
M 2853 3541 
Q 2853 3966 2637 4203 
Q 2422 4441 2034 4441 
Q 1650 4441 1433 4203 
Q 1216 3966 1216 3541 
Q 1216 3113 1433 2875 
Q 1650 2638 2034 2638 
Q 2422 2638 2637 2875 
Q 2853 3113 2853 3541 
z
M 2516 2484 
Q 3047 2413 3344 2092 
Q 3641 1772 3641 1275 
Q 3641 619 3225 264 
Q 2809 -91 2034 -91 
Q 1263 -91 845 264 
Q 428 619 428 1275 
Q 428 1772 725 2092 
Q 1022 2413 1556 2484 
Q 1084 2569 832 2842 
Q 581 3116 581 3541 
Q 581 4103 968 4426 
Q 1356 4750 2034 4750 
Q 2713 4750 3100 4426 
Q 3488 4103 3488 3541 
Q 3488 3116 3236 2842 
Q 2984 2569 2516 2484 
z
" transform="scale(0.015625)"/>
       </defs>
       <use xlink:href="#DejaVuSerif-30"/>
       <use xlink:href="#DejaVuSerif-2e" transform="translate(63.623047 0)"/>
       <use xlink:href="#DejaVuSerif-38" transform="translate(95.410156 0)"/>
      </g>
     </g>
    </g>
    <g id="text_9">
     <!-- Δr (μm) -->
     <g transform="translate(278.142344 266.155312) scale(0.18 -0.18)">
      <defs>
       <path id="DejaVuSerif-394" d="M 4350 0 
L 244 0 
L 2034 4666 
L 2559 4666 
L 4350 0 
z
M 3506 331 
L 2138 3909 
L 763 331 
L 3506 331 
z
" transform="scale(0.015625)"/>
       <path id="DejaVuSerif-72" d="M 3059 3328 
L 3059 2497 
L 2728 2497 
Q 2713 2744 2591 2866 
Q 2469 2988 2234 2988 
Q 1809 2988 1582 2694 
Q 1356 2400 1356 1850 
L 1356 331 
L 2022 331 
L 2022 0 
L 263 0 
L 263 331 
L 781 331 
L 781 2994 
L 231 2994 
L 231 3322 
L 1356 3322 
L 1356 2731 
Q 1525 3078 1790 3245 
Q 2056 3413 2438 3413 
Q 2578 3413 2733 3391 
Q 2888 3369 3059 3328 
z
" transform="scale(0.015625)"/>
       <path id="DejaVuSerif-20" transform="scale(0.015625)"/>
       <path id="DejaVuSerif-28" d="M 2041 -997 
Q 1281 -656 893 83 
Q 506 822 506 1931 
Q 506 3044 893 3783 
Q 1281 4522 2041 4863 
L 2041 4556 
Q 1559 4225 1350 3623 
Q 1141 3022 1141 1931 
Q 1141 844 1350 242 
Q 1559 -359 2041 -691 
L 2041 -997 
z
" transform="scale(0.015625)"/>
       <path id="DejaVuSerif-3bc" d="M 2309 3322 
L 3384 3322 
L 3384 325 
L 3928 325 
L 3928 0 
L 2809 0 
L 2809 588 
Q 2647 256 2417 82 
Q 2188 -91 1906 -91 
Q 1728 -91 1581 -34 
Q 1434 22 1313 134 
L 1313 -1331 
L 738 -1331 
L 738 2988 
L 219 2988 
L 219 3322 
L 1313 3322 
L 1313 1388 
Q 1313 781 1463 556 
Q 1613 331 1991 331 
Q 2391 331 2600 625 
Q 2809 919 2809 1478 
L 2809 2988 
L 2309 2988 
L 2309 3322 
z
" transform="scale(0.015625)"/>
       <path id="DejaVuSerif-6d" d="M 3316 2675 
Q 3481 3041 3739 3227 
Q 3997 3413 4341 3413 
Q 4863 3413 5119 3089 
Q 5375 2766 5375 2113 
L 5375 331 
L 5894 331 
L 5894 0 
L 4300 0 
L 4300 331 
L 4800 331 
L 4800 2047 
Q 4800 2556 4650 2772 
Q 4500 2988 4153 2988 
Q 3769 2988 3567 2697 
Q 3366 2406 3366 1850 
L 3366 331 
L 3866 331 
L 3866 0 
L 2291 0 
L 2291 331 
L 2791 331 
L 2791 2069 
Q 2791 2566 2641 2777 
Q 2491 2988 2144 2988 
Q 1759 2988 1557 2697 
Q 1356 2406 1356 1850 
L 1356 331 
L 1856 331 
L 1856 0 
L 263 0 
L 263 331 
L 781 331 
L 781 2994 
L 231 2994 
L 231 3322 
L 1356 3322 
L 1356 2731 
Q 1516 3063 1762 3238 
Q 2009 3413 2322 3413 
Q 2709 3413 2968 3220 
Q 3228 3028 3316 2675 
z
" transform="scale(0.015625)"/>
       <path id="DejaVuSerif-29" d="M 453 -997 
L 453 -691 
Q 934 -359 1145 242 
Q 1356 844 1356 1931 
Q 1356 3022 1145 3623 
Q 934 4225 453 4556 
L 453 4863 
Q 1216 4522 1603 3783 
Q 1991 3044 1991 1931 
Q 1991 822 1603 83 
Q 1216 -656 453 -997 
z
" transform="scale(0.015625)"/>
      </defs>
      <use xlink:href="#DejaVuSerif-394"/>
      <use xlink:href="#DejaVuSerif-72" transform="translate(72.216797 0)"/>
      <use xlink:href="#DejaVuSerif-20" transform="translate(120.019531 0)"/>
      <use xlink:href="#DejaVuSerif-28" transform="translate(151.806641 0)"/>
      <use xlink:href="#DejaVuSerif-3bc" transform="translate(190.820312 0)"/>
      <use xlink:href="#DejaVuSerif-6d" transform="translate(255.810547 0)"/>
      <use xlink:href="#DejaVuSerif-29" transform="translate(350.634766 0)"/>
     </g>
    </g>
   </g>
   <g id="matplotlib.axis_2">
    <g id="ytick_1">
     <g id="line2d_17">
      <path d="M 69.86 224.0575 
L 556.56 224.0575 
" clip-path="url(#pbc1ff9ceb3)" style="fill: none; stroke: #b0b0b0; stroke-width: 0.8; stroke-linecap: square"/>
     </g>
     <g id="line2d_18">
      <defs>
       <path id="mcaeceaf76c" d="M 0 0 
L -3.5 0 
" style="stroke: #000000; stroke-width: 0.8"/>
      </defs>
      <g>
       <use xlink:href="#mcaeceaf76c" x="69.86" y="224.0575" style="stroke: #000000; stroke-width: 0.8"/>
      </g>
     </g>
     <g id="text_10">
      <!-- 0 -->
      <g transform="translate(51.4075 230.896094) scale(0.18 -0.18)">
       <use xlink:href="#DejaVuSerif-30"/>
      </g>
     </g>
    </g>
    <g id="ytick_2">
     <g id="line2d_19">
      <path d="M 69.86 152.816586 
L 556.56 152.816586 
" clip-path="url(#pbc1ff9ceb3)" style="fill: none; stroke: #b0b0b0; stroke-width: 0.8; stroke-linecap: square"/>
     </g>
     <g id="line2d_20">
      <g>
       <use xlink:href="#mcaeceaf76c" x="69.86" y="152.816586" style="stroke: #000000; stroke-width: 0.8"/>
      </g>
     </g>
     <g id="text_11">
      <!-- 10 -->
      <g transform="translate(39.955 159.65518) scale(0.18 -0.18)">
       <defs>
        <path id="DejaVuSerif-31" d="M 909 0 
L 909 331 
L 1722 331 
L 1722 4213 
L 781 3603 
L 781 4013 
L 1919 4750 
L 2350 4750 
L 2350 331 
L 3163 331 
L 3163 0 
L 909 0 
z
" transform="scale(0.015625)"/>
       </defs>
       <use xlink:href="#DejaVuSerif-31"/>
       <use xlink:href="#DejaVuSerif-30" transform="translate(63.623047 0)"/>
      </g>
     </g>
    </g>
    <g id="ytick_3">
     <g id="line2d_21">
      <path d="M 69.86 81.575673 
L 556.56 81.575673 
" clip-path="url(#pbc1ff9ceb3)" style="fill: none; stroke: #b0b0b0; stroke-width: 0.8; stroke-linecap: square"/>
     </g>
     <g id="line2d_22">
      <g>
       <use xlink:href="#mcaeceaf76c" x="69.86" y="81.575673" style="stroke: #000000; stroke-width: 0.8"/>
      </g>
     </g>
     <g id="text_12">
      <!-- 20 -->
      <g transform="translate(39.955 88.414267) scale(0.18 -0.18)">
       <use xlink:href="#DejaVuSerif-32"/>
       <use xlink:href="#DejaVuSerif-30" transform="translate(63.623047 0)"/>
      </g>
     </g>
    </g>
    <g id="text_13">
     <!-- PDF -->
     <g transform="translate(32.211562 141.264688) rotate(-90) scale(0.18 -0.18)">
      <defs>
       <path id="DejaVuSerif-50" d="M 1581 2375 
L 2406 2375 
Q 2872 2375 3115 2626 
Q 3359 2878 3359 3353 
Q 3359 3831 3115 4081 
Q 2872 4331 2406 4331 
L 1581 4331 
L 1581 2375 
z
M 353 0 
L 353 331 
L 947 331 
L 947 4331 
L 353 4331 
L 353 4666 
L 2559 4666 
Q 3259 4666 3668 4311 
Q 4078 3956 4078 3353 
Q 4078 2753 3668 2397 
Q 3259 2041 2559 2041 
L 1581 2041 
L 1581 331 
L 2303 331 
L 2303 0 
L 353 0 
z
" transform="scale(0.015625)"/>
       <path id="DejaVuSerif-44" d="M 1581 331 
L 2163 331 
Q 3072 331 3558 850 
Q 4044 1369 4044 2338 
Q 4044 3306 3559 3818 
Q 3075 4331 2163 4331 
L 1581 4331 
L 1581 331 
z
M 353 0 
L 353 331 
L 947 331 
L 947 4331 
L 353 4331 
L 353 4666 
L 2209 4666 
Q 3416 4666 4089 4050 
Q 4763 3434 4763 2338 
Q 4763 1238 4088 619 
Q 3413 0 2209 0 
L 353 0 
z
" transform="scale(0.015625)"/>
       <path id="DejaVuSerif-46" d="M 353 0 
L 353 331 
L 947 331 
L 947 4331 
L 353 4331 
L 353 4666 
L 4172 4666 
L 4172 3628 
L 3788 3628 
L 3788 4281 
L 1581 4281 
L 1581 2719 
L 3175 2719 
L 3175 3303 
L 3559 3303 
L 3559 1753 
L 3175 1753 
L 3175 2338 
L 1581 2338 
L 1581 331 
L 2328 331 
L 2328 0 
L 353 0 
z
" transform="scale(0.015625)"/>
      </defs>
      <use xlink:href="#DejaVuSerif-50"/>
      <use xlink:href="#DejaVuSerif-44" transform="translate(67.285156 0)"/>
      <use xlink:href="#DejaVuSerif-46" transform="translate(147.460938 0)"/>
     </g>
    </g>
   </g>
   <g id="line2d_23">
    <path d="M 312.115891 224.0575 
L 312.115891 19.44 
" clip-path="url(#pbc1ff9ceb3)" style="fill: none; stroke-dasharray: 5.55,2.4; stroke-dashoffset: 0; stroke: #0000ff; stroke-width: 1.5"/>
   </g>
   <g id="line2d_24">
    <path d="M 288.631133 224.0575 
L 288.631133 19.44 
" clip-path="url(#pbc1ff9ceb3)" style="fill: none; stroke-dasharray: 5.55,2.4; stroke-dashoffset: 0; stroke: #0000ff; stroke-width: 1.5"/>
   </g>
   <g id="line2d_25">
    <path d="M 313.491894 224.0575 
L 313.491894 19.44 
" clip-path="url(#pbc1ff9ceb3)" style="fill: none; stroke-dasharray: 5.55,2.4; stroke-dashoffset: 0; stroke: #ff0000; stroke-width: 1.5"/>
   </g>
   <g id="line2d_26">
    <path d="M 287.255129 224.0575 
L 287.255129 19.44 
" clip-path="url(#pbc1ff9ceb3)" style="fill: none; stroke-dasharray: 5.55,2.4; stroke-dashoffset: 0; stroke: #ff0000; stroke-width: 1.5"/>
   </g>
   <g id="patch_103">
    <path d="M 69.86 224.0575 
L 69.86 19.44 
" style="fill: none; stroke: #000000; stroke-width: 0.8; stroke-linejoin: miter; stroke-linecap: square"/>
   </g>
   <g id="patch_104">
    <path d="M 556.56 224.0575 
L 556.56 19.44 
" style="fill: none; stroke: #000000; stroke-width: 0.8; stroke-linejoin: miter; stroke-linecap: square"/>
   </g>
   <g id="patch_105">
    <path d="M 69.86 224.0575 
L 556.56 224.0575 
" style="fill: none; stroke: #000000; stroke-width: 0.8; stroke-linejoin: miter; stroke-linecap: square"/>
   </g>
   <g id="patch_106">
    <path d="M 69.86 19.44 
L 556.56 19.44 
" style="fill: none; stroke: #000000; stroke-width: 0.8; stroke-linejoin: miter; stroke-linecap: square"/>
   </g>
   <g id="legend_1">
    <g id="patch_107">
     <path d="M 315.053438 139.5225 
L 543.96 139.5225 
Q 547.56 139.5225 547.56 135.9225 
L 547.56 32.04 
Q 547.56 28.44 543.96 28.44 
L 315.053438 28.44 
Q 311.453438 28.44 311.453438 32.04 
L 311.453438 135.9225 
Q 311.453438 139.5225 315.053438 139.5225 
z
" style="fill: #ffffff; opacity: 0.8; stroke: #cccccc; stroke-linejoin: miter"/>
    </g>
    <g id="patch_108">
     <path d="M 318.653438 49.317188 
L 354.653438 49.317188 
L 354.653438 36.717188 
L 318.653438 36.717188 
z
" style="fill: #87ceeb; opacity: 0.8; stroke: #000000; stroke-linejoin: miter"/>
    </g>
    <g id="text_14">
     <!-- inside 53BP1 foci -->
     <g transform="translate(369.053438 49.317188) scale(0.18 -0.18)">
      <defs>
       <path id="DejaVuSerif-69" d="M 622 4353 
Q 622 4497 726 4603 
Q 831 4709 978 4709 
Q 1122 4709 1226 4603 
Q 1331 4497 1331 4353 
Q 1331 4206 1228 4103 
Q 1125 4000 978 4000 
Q 831 4000 726 4103 
Q 622 4206 622 4353 
z
M 1356 331 
L 1900 331 
L 1900 0 
L 231 0 
L 231 331 
L 781 331 
L 781 2988 
L 231 2988 
L 231 3322 
L 1356 3322 
L 1356 331 
z
" transform="scale(0.015625)"/>
       <path id="DejaVuSerif-6e" d="M 263 0 
L 263 331 
L 781 331 
L 781 2988 
L 231 2988 
L 231 3322 
L 1356 3322 
L 1356 2731 
Q 1516 3069 1770 3241 
Q 2025 3413 2363 3413 
Q 2913 3413 3172 3097 
Q 3431 2781 3431 2113 
L 3431 331 
L 3944 331 
L 3944 0 
L 2356 0 
L 2356 331 
L 2853 331 
L 2853 1931 
Q 2853 2541 2703 2767 
Q 2553 2994 2175 2994 
Q 1775 2994 1565 2701 
Q 1356 2409 1356 1850 
L 1356 331 
L 1856 331 
L 1856 0 
L 263 0 
z
" transform="scale(0.015625)"/>
       <path id="DejaVuSerif-73" d="M 359 184 
L 359 959 
L 691 959 
Q 703 588 923 403 
Q 1144 219 1575 219 
Q 1963 219 2166 364 
Q 2369 509 2369 788 
Q 2369 1006 2220 1140 
Q 2072 1275 1594 1428 
L 1178 1569 
Q 750 1706 558 1912 
Q 366 2119 366 2438 
Q 366 2894 700 3153 
Q 1034 3413 1625 3413 
Q 1888 3413 2178 3344 
Q 2469 3275 2778 3144 
L 2778 2419 
L 2447 2419 
Q 2434 2741 2221 2922 
Q 2009 3103 1644 3103 
Q 1281 3103 1095 2975 
Q 909 2847 909 2591 
Q 909 2381 1050 2254 
Q 1191 2128 1613 1997 
L 2069 1856 
Q 2541 1709 2748 1489 
Q 2956 1269 2956 922 
Q 2956 450 2595 179 
Q 2234 -91 1600 -91 
Q 1278 -91 972 -22 
Q 666 47 359 184 
z
" transform="scale(0.015625)"/>
       <path id="DejaVuSerif-64" d="M 3359 331 
L 3909 331 
L 3909 0 
L 2784 0 
L 2784 519 
Q 2616 206 2355 57 
Q 2094 -91 1709 -91 
Q 1097 -91 708 395 
Q 319 881 319 1663 
Q 319 2444 706 2928 
Q 1094 3413 1709 3413 
Q 2094 3413 2355 3264 
Q 2616 3116 2784 2803 
L 2784 4531 
L 2241 4531 
L 2241 4863 
L 3359 4863 
L 3359 331 
z
M 2784 1497 
L 2784 1825 
Q 2784 2422 2554 2737 
Q 2325 3053 1888 3053 
Q 1444 3053 1217 2703 
Q 991 2353 991 1663 
Q 991 975 1217 622 
Q 1444 269 1888 269 
Q 2325 269 2554 583 
Q 2784 897 2784 1497 
z
" transform="scale(0.015625)"/>
       <path id="DejaVuSerif-65" d="M 3469 1600 
L 991 1600 
L 991 1575 
Q 991 903 1244 561 
Q 1497 219 1991 219 
Q 2369 219 2611 417 
Q 2853 616 2950 1006 
L 3413 1006 
Q 3275 459 2904 184 
Q 2534 -91 1931 -91 
Q 1203 -91 761 389 
Q 319 869 319 1663 
Q 319 2450 753 2931 
Q 1188 3413 1894 3413 
Q 2647 3413 3050 2948 
Q 3453 2484 3469 1600 
z
M 2791 1931 
Q 2772 2513 2545 2808 
Q 2319 3103 1894 3103 
Q 1497 3103 1269 2806 
Q 1041 2509 991 1931 
L 2791 1931 
z
" transform="scale(0.015625)"/>
       <path id="DejaVuSerif-35" d="M 3219 4666 
L 3219 4153 
L 1081 4153 
L 1081 2816 
Q 1244 2928 1461 2984 
Q 1678 3041 1947 3041 
Q 2703 3041 3140 2622 
Q 3578 2203 3578 1478 
Q 3578 738 3136 323 
Q 2694 -91 1894 -91 
Q 1572 -91 1234 -12 
Q 897 66 544 225 
L 544 1131 
L 897 1131 
Q 925 688 1179 453 
Q 1434 219 1894 219 
Q 2388 219 2653 544 
Q 2919 869 2919 1478 
Q 2919 2084 2655 2407 
Q 2391 2731 1894 2731 
Q 1613 2731 1398 2631 
Q 1184 2531 1019 2322 
L 750 2322 
L 750 4666 
L 3219 4666 
z
" transform="scale(0.015625)"/>
       <path id="DejaVuSerif-33" d="M 622 4469 
Q 988 4606 1323 4678 
Q 1659 4750 1953 4750 
Q 2638 4750 3022 4454 
Q 3406 4159 3406 3634 
Q 3406 3213 3140 2930 
Q 2875 2647 2388 2547 
Q 2963 2466 3280 2130 
Q 3597 1794 3597 1259 
Q 3597 606 3158 257 
Q 2719 -91 1894 -91 
Q 1528 -91 1179 -12 
Q 831 66 488 225 
L 488 1131 
L 838 1131 
Q 869 681 1141 450 
Q 1413 219 1906 219 
Q 2384 219 2661 495 
Q 2938 772 2938 1253 
Q 2938 1803 2653 2086 
Q 2369 2369 1819 2369 
L 1522 2369 
L 1522 2688 
L 1678 2688 
Q 2225 2688 2498 2914 
Q 2772 3141 2772 3597 
Q 2772 4006 2547 4223 
Q 2322 4441 1900 4441 
Q 1478 4441 1245 4241 
Q 1013 4041 972 3647 
L 622 3647 
L 622 4469 
z
" transform="scale(0.015625)"/>
       <path id="DejaVuSerif-42" d="M 1581 331 
L 2516 331 
Q 3078 331 3337 575 
Q 3597 819 3597 1350 
Q 3597 1878 3339 2120 
Q 3081 2363 2516 2363 
L 1581 2363 
L 1581 331 
z
M 1581 2694 
L 2375 2694 
Q 2888 2694 3123 2891 
Q 3359 3088 3359 3513 
Q 3359 3941 3123 4136 
Q 2888 4331 2375 4331 
L 1581 4331 
L 1581 2694 
z
M 353 0 
L 353 331 
L 947 331 
L 947 4331 
L 353 4331 
L 353 4666 
L 2656 4666 
Q 3363 4666 3720 4377 
Q 4078 4088 4078 3513 
Q 4078 3097 3829 2850 
Q 3581 2603 3103 2547 
Q 3697 2472 4005 2167 
Q 4313 1863 4313 1350 
Q 4313 656 3875 328 
Q 3438 0 2509 0 
L 353 0 
z
" transform="scale(0.015625)"/>
       <path id="DejaVuSerif-66" d="M 2753 4078 
L 2450 4078 
Q 2447 4313 2317 4434 
Q 2188 4556 1941 4556 
Q 1619 4556 1487 4379 
Q 1356 4203 1356 3750 
L 1356 3322 
L 2284 3322 
L 2284 2988 
L 1356 2988 
L 1356 331 
L 2094 331 
L 2094 0 
L 231 0 
L 231 331 
L 781 331 
L 781 2988 
L 231 2988 
L 231 3322 
L 781 3322 
L 781 3738 
Q 781 4294 1070 4578 
Q 1359 4863 1919 4863 
Q 2128 4863 2337 4825 
Q 2547 4788 2753 4709 
L 2753 4078 
z
" transform="scale(0.015625)"/>
       <path id="DejaVuSerif-6f" d="M 1925 219 
Q 2388 219 2623 584 
Q 2859 950 2859 1663 
Q 2859 2375 2623 2739 
Q 2388 3103 1925 3103 
Q 1463 3103 1227 2739 
Q 991 2375 991 1663 
Q 991 950 1228 584 
Q 1466 219 1925 219 
z
M 1925 -91 
Q 1200 -91 759 389 
Q 319 869 319 1663 
Q 319 2456 758 2934 
Q 1197 3413 1925 3413 
Q 2653 3413 3092 2934 
Q 3531 2456 3531 1663 
Q 3531 869 3092 389 
Q 2653 -91 1925 -91 
z
" transform="scale(0.015625)"/>
       <path id="DejaVuSerif-63" d="M 3291 997 
Q 3169 466 2822 187 
Q 2475 -91 1925 -91 
Q 1200 -91 759 389 
Q 319 869 319 1663 
Q 319 2459 759 2936 
Q 1200 3413 1925 3413 
Q 2241 3413 2553 3339 
Q 2866 3266 3181 3116 
L 3181 2266 
L 2847 2266 
Q 2781 2703 2561 2903 
Q 2341 3103 1931 3103 
Q 1466 3103 1228 2742 
Q 991 2381 991 1663 
Q 991 944 1227 581 
Q 1463 219 1931 219 
Q 2303 219 2525 412 
Q 2747 606 2828 997 
L 3291 997 
z
" transform="scale(0.015625)"/>
      </defs>
      <use xlink:href="#DejaVuSerif-69"/>
      <use xlink:href="#DejaVuSerif-6e" transform="translate(31.982422 0)"/>
      <use xlink:href="#DejaVuSerif-73" transform="translate(96.386719 0)"/>
      <use xlink:href="#DejaVuSerif-69" transform="translate(147.705078 0)"/>
      <use xlink:href="#DejaVuSerif-64" transform="translate(179.6875 0)"/>
      <use xlink:href="#DejaVuSerif-65" transform="translate(243.701172 0)"/>
      <use xlink:href="#DejaVuSerif-20" transform="translate(302.880859 0)"/>
      <use xlink:href="#DejaVuSerif-35" transform="translate(334.667969 0)"/>
      <use xlink:href="#DejaVuSerif-33" transform="translate(398.291016 0)"/>
      <use xlink:href="#DejaVuSerif-42" transform="translate(461.914062 0)"/>
      <use xlink:href="#DejaVuSerif-50" transform="translate(535.400391 0)"/>
      <use xlink:href="#DejaVuSerif-31" transform="translate(602.685547 0)"/>
      <use xlink:href="#DejaVuSerif-20" transform="translate(666.308594 0)"/>
      <use xlink:href="#DejaVuSerif-66" transform="translate(698.095703 0)"/>
      <use xlink:href="#DejaVuSerif-6f" transform="translate(735.107422 0)"/>
      <use xlink:href="#DejaVuSerif-63" transform="translate(795.3125 0)"/>
      <use xlink:href="#DejaVuSerif-69" transform="translate(851.318359 0)"/>
     </g>
    </g>
    <g id="patch_109">
     <path d="M 318.653438 75.737813 
L 354.653438 75.737813 
L 354.653438 63.137813 
L 318.653438 63.137813 
z
" style="fill: #ffc0cb; opacity: 0.8; stroke: #000000; stroke-linejoin: miter"/>
    </g>
    <g id="text_15">
     <!-- outside 53BP1 foci -->
     <g transform="translate(369.053438 75.737813) scale(0.18 -0.18)">
      <defs>
       <path id="DejaVuSerif-75" d="M 2266 3322 
L 3341 3322 
L 3341 331 
L 3884 331 
L 3884 0 
L 2766 0 
L 2766 588 
Q 2606 256 2353 82 
Q 2100 -91 1766 -91 
Q 1213 -91 952 223 
Q 691 538 691 1209 
L 691 2988 
L 172 2988 
L 172 3322 
L 1269 3322 
L 1269 1388 
Q 1269 781 1417 556 
Q 1566 331 1947 331 
Q 2347 331 2556 625 
Q 2766 919 2766 1478 
L 2766 2988 
L 2266 2988 
L 2266 3322 
z
" transform="scale(0.015625)"/>
       <path id="DejaVuSerif-74" d="M 691 2988 
L 184 2988 
L 184 3322 
L 691 3322 
L 691 4353 
L 1269 4353 
L 1269 3322 
L 2350 3322 
L 2350 2988 
L 1269 2988 
L 1269 878 
Q 1269 456 1350 337 
Q 1431 219 1650 219 
Q 1875 219 1978 351 
Q 2081 484 2088 781 
L 2522 781 
Q 2497 328 2275 118 
Q 2053 -91 1600 -91 
Q 1103 -91 897 129 
Q 691 350 691 878 
L 691 2988 
z
" transform="scale(0.015625)"/>
      </defs>
      <use xlink:href="#DejaVuSerif-6f"/>
      <use xlink:href="#DejaVuSerif-75" transform="translate(60.205078 0)"/>
      <use xlink:href="#DejaVuSerif-74" transform="translate(124.609375 0)"/>
      <use xlink:href="#DejaVuSerif-73" transform="translate(164.794922 0)"/>
      <use xlink:href="#DejaVuSerif-69" transform="translate(216.113281 0)"/>
      <use xlink:href="#DejaVuSerif-64" transform="translate(248.095703 0)"/>
      <use xlink:href="#DejaVuSerif-65" transform="translate(312.109375 0)"/>
      <use xlink:href="#DejaVuSerif-20" transform="translate(371.289062 0)"/>
      <use xlink:href="#DejaVuSerif-35" transform="translate(403.076172 0)"/>
      <use xlink:href="#DejaVuSerif-33" transform="translate(466.699219 0)"/>
      <use xlink:href="#DejaVuSerif-42" transform="translate(530.322266 0)"/>
      <use xlink:href="#DejaVuSerif-50" transform="translate(603.808594 0)"/>
      <use xlink:href="#DejaVuSerif-31" transform="translate(671.09375 0)"/>
      <use xlink:href="#DejaVuSerif-20" transform="translate(734.716797 0)"/>
      <use xlink:href="#DejaVuSerif-66" transform="translate(766.503906 0)"/>
      <use xlink:href="#DejaVuSerif-6f" transform="translate(803.515625 0)"/>
      <use xlink:href="#DejaVuSerif-63" transform="translate(863.720703 0)"/>
      <use xlink:href="#DejaVuSerif-69" transform="translate(919.726562 0)"/>
     </g>
    </g>
    <g id="line2d_27">
     <path d="M 318.653438 95.858438 
L 336.653438 95.858438 
L 354.653438 95.858438 
" style="fill: none; stroke-dasharray: 5.55,2.4; stroke-dashoffset: 0; stroke: #0000ff; stroke-width: 1.5"/>
    </g>
    <g id="text_16">
     <!-- +/-1 std (inside) -->
     <g transform="translate(369.053438 102.158438) scale(0.18 -0.18)">
      <defs>
       <path id="DejaVuSerif-2b" d="M 2931 4013 
L 2931 2259 
L 4684 2259 
L 4684 1753 
L 2931 1753 
L 2931 0 
L 2431 0 
L 2431 1753 
L 678 1753 
L 678 2259 
L 2431 2259 
L 2431 4013 
L 2931 4013 
z
" transform="scale(0.015625)"/>
       <path id="DejaVuSerif-2f" d="M 1656 4666 
L 2156 4666 
L 500 -594 
L 0 -594 
L 1656 4666 
z
" transform="scale(0.015625)"/>
       <path id="DejaVuSerif-2d" d="M 281 1959 
L 1881 1959 
L 1881 1472 
L 281 1472 
L 281 1959 
z
" transform="scale(0.015625)"/>
      </defs>
      <use xlink:href="#DejaVuSerif-2b"/>
      <use xlink:href="#DejaVuSerif-2f" transform="translate(83.789062 0)"/>
      <use xlink:href="#DejaVuSerif-2d" transform="translate(117.480469 0)"/>
      <use xlink:href="#DejaVuSerif-31" transform="translate(151.269531 0)"/>
      <use xlink:href="#DejaVuSerif-20" transform="translate(214.892578 0)"/>
      <use xlink:href="#DejaVuSerif-73" transform="translate(246.679688 0)"/>
      <use xlink:href="#DejaVuSerif-74" transform="translate(297.998047 0)"/>
      <use xlink:href="#DejaVuSerif-64" transform="translate(338.183594 0)"/>
      <use xlink:href="#DejaVuSerif-20" transform="translate(402.197266 0)"/>
      <use xlink:href="#DejaVuSerif-28" transform="translate(433.984375 0)"/>
      <use xlink:href="#DejaVuSerif-69" transform="translate(472.998047 0)"/>
      <use xlink:href="#DejaVuSerif-6e" transform="translate(504.980469 0)"/>
      <use xlink:href="#DejaVuSerif-73" transform="translate(569.384766 0)"/>
      <use xlink:href="#DejaVuSerif-69" transform="translate(620.703125 0)"/>
      <use xlink:href="#DejaVuSerif-64" transform="translate(652.685547 0)"/>
      <use xlink:href="#DejaVuSerif-65" transform="translate(716.699219 0)"/>
      <use xlink:href="#DejaVuSerif-29" transform="translate(775.878906 0)"/>
     </g>
    </g>
    <g id="line2d_28">
     <path d="M 318.653438 122.279063 
L 336.653438 122.279063 
L 354.653438 122.279063 
" style="fill: none; stroke-dasharray: 5.55,2.4; stroke-dashoffset: 0; stroke: #ff0000; stroke-width: 1.5"/>
    </g>
    <g id="text_17">
     <!-- +/-1 std (outside) -->
     <g transform="translate(369.053438 128.579063) scale(0.18 -0.18)">
      <use xlink:href="#DejaVuSerif-2b"/>
      <use xlink:href="#DejaVuSerif-2f" transform="translate(83.789062 0)"/>
      <use xlink:href="#DejaVuSerif-2d" transform="translate(117.480469 0)"/>
      <use xlink:href="#DejaVuSerif-31" transform="translate(151.269531 0)"/>
      <use xlink:href="#DejaVuSerif-20" transform="translate(214.892578 0)"/>
      <use xlink:href="#DejaVuSerif-73" transform="translate(246.679688 0)"/>
      <use xlink:href="#DejaVuSerif-74" transform="translate(297.998047 0)"/>
      <use xlink:href="#DejaVuSerif-64" transform="translate(338.183594 0)"/>
      <use xlink:href="#DejaVuSerif-20" transform="translate(402.197266 0)"/>
      <use xlink:href="#DejaVuSerif-28" transform="translate(433.984375 0)"/>
      <use xlink:href="#DejaVuSerif-6f" transform="translate(472.998047 0)"/>
      <use xlink:href="#DejaVuSerif-75" transform="translate(533.203125 0)"/>
      <use xlink:href="#DejaVuSerif-74" transform="translate(597.607422 0)"/>
      <use xlink:href="#DejaVuSerif-73" transform="translate(637.792969 0)"/>
      <use xlink:href="#DejaVuSerif-69" transform="translate(689.111328 0)"/>
      <use xlink:href="#DejaVuSerif-64" transform="translate(721.09375 0)"/>
      <use xlink:href="#DejaVuSerif-65" transform="translate(785.107422 0)"/>
      <use xlink:href="#DejaVuSerif-29" transform="translate(844.287109 0)"/>
     </g>
    </g>
   </g>
  </g>
 </g>
 <defs>
  <clipPath id="pbc1ff9ceb3">
   <rect x="69.86" y="19.44" width="486.7" height="204.6175"/>
  </clipPath>
 </defs>
</svg>
